<svg version="1.1" id="Layer_1" xmlns="http://www.w3.org/2000/svg" xmlns:xlink="http://www.w3.org/1999/xlink" x="0px" y="0px"
	 width="100%" viewBox="0 0 1024 1024" enable-background="new 0 0 1024 1024" xml:space="preserve">
<path fill="#000000" opacity="1.000000" stroke="none" 
	d="
M306.292786,635.495972 
	C238.088852,659.721130 164.112473,627.460510 136.623032,561.223022 
	C115.788605,511.021240 126.929634,453.110352 166.993973,414.670837 
	C187.051529,395.426636 210.195541,382.124939 237.675308,378.196869 
	C283.570862,371.636414 323.991058,383.160034 356.865448,417.286407 
	C375.565277,436.698456 387.323486,459.679108 392.036102,486.016815 
	C403.699860,551.202942 367.725922,613.154541 306.292786,635.495972 
M313.561066,448.057007 
	C314.395782,447.243561 315.345215,446.517639 316.044800,445.601044 
	C318.644440,442.194794 320.975098,441.310120 324.418274,445.012817 
	C327.427887,448.249268 328.973999,450.168610 324.925507,454.155273 
	C310.211609,468.644562 295.988892,483.631470 281.461761,498.312775 
	C279.212341,500.586060 278.539764,502.593018 279.433655,505.763550 
	C282.861694,517.922302 277.845978,528.607727 266.286560,533.598328 
	C263.139404,534.957092 262.243500,536.665527 262.263275,539.938599 
	C262.400055,562.592224 262.339752,585.247070 262.343414,607.901489 
	C262.345001,617.729797 262.345123,617.723450 272.311249,616.744934 
	C273.635406,616.614990 274.987793,616.702148 276.296448,616.494934 
	C325.054718,608.774292 361.697968,571.080750 367.564850,522.638672 
	C368.244965,517.023193 367.597870,516.427307 361.886047,516.323181 
	C356.645874,516.227844 351.436951,518.676331 346.220734,516.666077 
	C344.150909,507.844727 344.150909,507.844788 352.935150,506.301941 
	C354.081238,506.100616 355.222900,505.753357 356.373901,505.719238 
	C369.499390,505.330017 368.681610,504.803345 366.662170,492.660309 
	C361.305115,460.448181 344.677948,435.657257 317.087891,418.261017 
	C302.300140,408.936951 285.996857,404.289795 268.647339,402.792267 
	C262.934998,402.299194 262.346222,402.437195 262.343628,408.315796 
	C262.332672,433.135742 262.482635,457.957306 262.204620,482.774139 
	C262.155090,487.191986 264.141907,488.765472 267.515625,490.431580 
	C271.091614,492.197571 272.792816,489.895721 274.718231,487.925476 
	C287.522827,474.822388 300.283386,461.676300 313.561066,448.057007 
M198.110062,467.376007 
	C212.072784,479.484680 225.979462,491.659119 240.044846,503.647339 
	C242.907303,506.087036 244.337280,508.526306 244.506073,512.464966 
	C244.891129,521.450195 254.957840,526.704468 262.420166,522.205688 
	C267.258148,519.288940 269.546082,514.450989 268.391418,509.579346 
	C267.019989,503.793121 261.867340,499.331451 255.728821,499.506775 
	C251.872253,499.616913 249.189621,498.299988 246.430862,495.842133 
	C236.732498,487.201477 226.864899,478.750183 217.028381,470.265472 
	C210.895401,464.975311 204.702820,459.754242 198.639038,454.589111 
	C191.145035,460.896667 191.127258,461.307220 198.110062,467.376007 
z"/>
<path fill="#000000" opacity="1.000000" stroke="none" 
	d="
M749.297241,579.791199 
	C749.620117,584.261719 747.568054,585.480103 743.843567,585.390686 
	C737.015381,585.226868 730.171631,585.132629 723.351501,585.417969 
	C718.853821,585.606140 717.613037,583.720398 717.633179,579.522888 
	C717.752441,554.694641 717.695862,529.865479 717.692200,505.036652 
	C717.688599,480.707703 717.802795,456.377563 717.568298,432.050812 
	C717.519043,426.949280 719.173706,425.277283 724.177551,425.555634 
	C730.656372,425.915985 737.179138,425.850525 743.666077,425.573029 
	C748.124390,425.382324 749.404968,427.191742 749.382629,431.440399 
	C749.249634,456.768433 749.305725,482.097595 749.347839,507.426239 
	C749.350769,509.171051 748.786133,511.044556 750.231506,513.150208 
	C757.291565,504.053802 764.196472,495.160278 771.094727,486.261597 
	C771.502197,485.736023 771.914673,485.200043 772.225891,484.616211 
	C778.088989,473.620178 787.136902,469.732880 799.390015,471.493500 
	C805.221558,472.331421 811.273315,471.637543 816.998718,471.637543 
	C818.014160,474.558563 816.212280,475.704254 815.145691,477.051666 
	C804.914856,489.975861 794.662109,502.882965 784.345764,515.738953 
	C779.768005,521.443604 779.817505,521.295044 784.076416,527.038025 
	C797.170410,544.694580 810.166504,562.423767 823.184814,580.136353 
	C824.057678,581.324036 824.936096,582.551086 824.991211,583.873352 
	C824.411560,585.351257 823.323914,585.299988 822.361755,585.302979 
	C812.197144,585.334351 802.031128,585.237854 791.868652,585.391113 
	C788.584229,585.440613 787.195435,583.301208 785.649231,581.142517 
	C776.533630,568.415161 767.432434,555.677368 758.319885,542.947876 
	C757.562134,541.889282 757.072815,540.553711 755.396606,540.104004 
	C751.600281,543.646667 748.872925,547.444336 749.194702,553.324585 
	C749.667480,561.963562 749.306885,570.648132 749.297241,579.791199 
z"/>
<path fill="#000000" opacity="1.000000" stroke="none" 
	d="
M690.968140,585.348694 
	C686.476624,585.347717 682.451965,585.055786 678.487122,585.417908 
	C673.436462,585.879211 671.427612,583.730225 671.648499,578.900757 
	C671.699402,577.788391 671.525146,576.665710 671.385315,574.452209 
	C664.496460,581.933228 656.537537,585.716064 647.432861,586.897644 
	C634.396606,588.589539 622.142761,586.738098 611.869202,577.752014 
	C597.112000,564.844177 594.791382,531.551819 624.526184,522.699890 
	C633.372437,520.066406 642.496826,519.538025 651.577087,518.743652 
	C655.448120,518.404968 659.175110,517.701660 662.708496,516.275085 
	C669.635559,513.478394 671.680603,506.341827 667.266541,500.283844 
	C663.547668,495.180023 658.257996,492.763336 652.035889,493.587219 
	C645.595703,494.440002 640.763611,497.884491 639.503174,504.664978 
	C638.934326,507.725220 637.361450,508.406219 634.706421,508.385590 
	C627.377014,508.328735 620.046631,508.308990 612.717468,508.375610 
	C609.065247,508.408783 607.729675,507.098755 608.266541,503.205475 
	C610.576416,486.453094 621.535156,474.322052 638.916504,469.745056 
	C649.718018,466.900726 660.641296,466.767700 671.529053,468.932068 
	C686.946167,471.996857 697.464172,483.218536 700.294922,499.055328 
	C701.058228,503.325836 701.398376,507.596802 701.383850,511.942688 
	C701.310669,533.765198 701.353394,555.588135 701.349915,577.410889 
	C701.348694,585.325073 701.341675,585.325195 693.460693,585.345703 
	C692.794373,585.347412 692.127991,585.347473 690.968140,585.348694 
M668.753967,549.094849 
	C670.151978,544.673218 671.250793,540.220032 670.244263,535.116943 
	C664.546570,537.875000 658.805847,539.822571 652.666260,540.346619 
	C648.875122,540.670105 645.051575,540.841064 641.312500,541.485962 
	C637.280151,542.181458 633.420654,543.635315 632.511719,548.325989 
	C631.630737,552.872620 633.564880,556.487976 637.235046,559.059814 
	C638.827942,560.176086 640.724365,561.032166 642.608765,561.530579 
	C652.726013,564.206177 663.302612,559.358704 668.753967,549.094849 
z"/>
<path fill="#000000" opacity="1.000000" stroke="none" 
	d="
M497.999817,455.369812 
	C489.005005,455.368164 480.497314,455.645172 472.020264,455.255615 
	C467.195618,455.033875 466.052765,456.898132 466.168274,461.295166 
	C466.413147,470.616425 466.403656,479.952606 466.169739,489.274384 
	C466.067230,493.360870 467.352478,494.801697 471.554260,494.731384 
	C484.875763,494.508484 498.206940,494.829498 511.526764,494.561005 
	C516.240479,494.466003 517.661621,496.172821 517.418579,500.648041 
	C517.120972,506.128540 517.091553,511.653320 517.427673,517.129395 
	C517.716125,521.828491 516.239319,523.577209 511.305573,523.465454 
	C498.153687,523.167419 484.986938,523.542236 471.833801,523.272949 
	C467.347229,523.181091 466.136810,524.721252 466.186615,529.014771 
	C466.379883,545.669067 466.276215,562.327026 466.243835,578.983521 
	C466.232086,585.030090 465.886261,585.334412 459.593475,585.357239 
	C452.930939,585.381470 446.252686,585.080017 439.610687,585.449280 
	C434.557678,585.730164 432.942932,583.922913 432.965271,578.909119 
	C433.109161,546.596191 432.997223,514.282227 432.987579,481.968597 
	C432.982666,465.478638 432.993195,448.988647 433.042999,432.498779 
	C433.062958,425.903748 433.334351,425.656525 439.678314,425.653198 
	C464.663177,425.640015 489.648071,425.634857 514.632935,425.649597 
	C520.844421,425.653259 521.218506,426.016754 521.259460,432.075500 
	C521.301025,438.238037 521.198608,444.401794 521.268677,450.563782 
	C521.306641,453.899292 519.905884,455.441589 516.488098,455.384338 
	C510.493591,455.283936 504.496033,455.364502 497.999817,455.369812 
z"/>
<path fill="#000000" opacity="1.000000" stroke="none" 
	d="
M887.907471,471.643616 
	C892.848816,471.047150 894.733215,472.722992 894.416748,477.454071 
	C894.050842,482.925903 894.200439,488.445679 894.382263,493.936127 
	C894.508972,497.764252 893.021729,499.441254 889.138855,499.329529 
	C884.146484,499.185944 879.145447,499.374542 874.150208,499.293060 
	C871.388184,499.247986 870.294250,500.408752 870.308044,503.173584 
	C870.382812,518.163452 870.158691,533.157837 870.452515,548.142517 
	C870.611755,556.264282 877.785522,560.362183 887.426208,558.384094 
	C889.352417,557.988953 891.237671,557.394653 893.809814,556.715942 
	C894.779968,565.163391 894.326782,573.211182 894.160767,581.243896 
	C894.132874,582.594971 893.051331,583.258728 891.935974,583.679443 
	C878.284302,588.828491 855.322876,587.630920 844.669739,572.592163 
	C839.203308,564.875244 839.281799,555.949097 839.093689,547.193787 
	C838.793213,533.209290 838.880127,519.211853 839.079529,505.223816 
	C839.143677,500.722168 837.731445,499.080414 833.067383,499.201508 
	C823.697754,499.444733 823.688354,499.204956 823.682190,489.591370 
	C823.679321,485.094299 823.762512,480.595825 823.672424,476.100677 
	C823.608887,472.933411 825.001404,471.756653 828.156799,471.597290 
	C838.980103,471.050873 838.970886,470.959534 838.969360,460.151642 
	C838.968750,455.654663 839.033997,451.157257 838.990540,446.660797 
	C838.957703,443.255951 840.124207,441.460022 843.960815,441.579742 
	C851.115967,441.803040 858.285828,441.774689 865.443665,441.604401 
	C869.148010,441.516296 870.452637,443.001770 870.363464,446.623444 
	C870.195435,453.448029 870.482361,460.284698 870.274353,467.107025 
	C870.166260,470.651917 871.497864,471.849945 874.930603,471.680511 
	C879.084351,471.475525 883.256226,471.638977 887.907471,471.643616 
z"/>
<path fill="#000000" opacity="1.000000" stroke="none" 
	d="
M580.227783,469.823669 
	C585.108826,468.633453 589.535278,466.986450 594.294006,468.463806 
	C595.804626,468.932800 597.244202,469.258972 597.250000,471.205627 
	C597.278931,480.972351 597.704041,490.750092 597.005310,500.352234 
	C593.360779,500.352234 590.245911,500.348541 587.130981,500.352844 
	C574.609558,500.370148 567.529053,507.124756 566.295532,519.618652 
	C564.358154,539.242371 565.823547,558.899841 565.371216,578.535583 
	C565.214722,585.328186 565.326111,585.339661 558.497620,585.347717 
	C551.999512,585.355347 545.499634,585.248291 539.004150,585.376892 
	C535.801270,585.440369 534.611633,584.208923 534.617371,580.979614 
	C534.679993,545.989868 534.670105,510.999908 534.598083,476.010193 
	C534.591431,472.794495 535.786072,471.543457 538.997437,471.614838 
	C545.159180,471.751770 551.339661,471.895905 557.486816,471.564209 
	C562.153442,471.312408 563.884521,473.092224 563.395752,477.611053 
	C563.262939,478.839142 562.928284,480.249146 564.184265,481.807404 
	C568.636902,476.768585 573.390076,472.171936 580.227783,469.823669 
z"/>
</svg>