<?xml version="1.0" encoding="UTF-8"?>
<svg version="1.1" xmlns="http://www.w3.org/2000/svg" width="1000" height="1000">
<path d="M0 0 C0.12701729 9.59686175 -0.05624754 19.16008992 -0.4375 28.75 C-0.47673584 29.79736328 -0.51597168 30.84472656 -0.55639648 31.92382812 C-0.59837158 32.91318359 -0.64034668 33.90253906 -0.68359375 34.921875 C-0.72025146 35.80456055 -0.75690918 36.68724609 -0.79467773 37.59667969 C-0.98607043 39.83695282 -1.38412703 41.84209634 -2 44 C-1.32235596 43.96970703 -0.64471191 43.93941406 0.0534668 43.90820312 C12.0093786 43.38404208 23.9701595 42.89476192 35.9375 42.75 C37.24883911 42.7180957 37.24883911 42.7180957 38.58666992 42.68554688 C44.48584922 42.65250156 44.48584922 42.65250156 46.78904819 44.20916176 C48 46 48 46 47.94568539 48.30211449 C47.64977426 49.62842856 47.64977426 49.62842856 47.34788513 50.98153687 C47.13693647 51.9643803 46.92598782 52.94722374 46.70864677 53.95985031 C46.47479334 54.96309971 46.2409399 55.96634911 46 57 C45.80100664 57.90768757 45.60201328 58.81537514 45.39698982 59.75056839 C44.76423309 62.60423906 44.10229624 65.44989836 43.43383789 68.29541016 C43.18477188 69.36520615 42.93570587 70.43500214 42.67909241 71.53721619 C41.86308523 75.03849316 41.04307921 78.53881782 40.22265625 82.0390625 C39.64965958 84.49040063 39.07678043 86.94176624 38.50401306 89.39315796 C37.30638111 94.51579903 36.10667269 99.63794974 34.90551758 104.75976562 C33.52209507 110.65903194 32.14380613 116.55948111 30.76798826 122.46052516 C29.43692104 128.16864267 28.10111524 133.8756426 26.76348686 139.5822258 C26.19802963 141.9971357 25.63390195 144.41235733 25.07115364 146.82789993 C24.28333708 150.20735675 23.49011748 153.58550235 22.69555664 156.96337891 C22.46636536 157.95167191 22.23717407 158.9399649 22.0010376 159.95820618 C20.62986609 165.7572596 18.9947571 171.38417123 17 177 C-4.2386403 177.3946349 -25.47733972 177.78594047 -46.71611118 178.17345428 C-56.58119616 178.3535233 -66.44626019 178.53461672 -76.3112793 178.71826172 C-84.925732 178.8786237 -93.54021995 179.03692119 -102.15475315 179.19290113 C-106.70141341 179.27529356 -111.24805184 179.3586095 -115.79464912 179.44441223 C-137.53265818 179.85390364 -159.25787475 180.10208795 -181 180 C-183.12845584 175.26767016 -184.76771729 170.66769708 -186.12207031 165.64257812 C-186.31327013 164.93883749 -186.50446995 164.23509686 -186.7014637 163.51003075 C-187.33186091 161.18505002 -187.95497911 158.85818372 -188.578125 156.53125 C-189.02619644 154.87341938 -189.47474441 153.21571749 -189.92373657 151.55813599 C-191.12372781 147.123257 -192.31758808 142.68674956 -193.51021576 138.24988556 C-194.74440126 133.66223866 -195.98385751 129.07601704 -197.22314453 124.48974609 C-198.71809507 118.95665895 -200.2128072 113.42350937 -201.70523071 107.88973999 C-204.70882156 96.75568137 -207.73505761 85.62814446 -210.7890625 74.5078125 C-211.14843176 73.19802798 -211.50776674 71.88823405 -211.86706543 70.57843018 C-213.19058971 65.75515288 -214.51432935 60.93194878 -215.84484863 56.1105957 C-216.73056722 52.90013975 -217.61183625 49.68849358 -218.4921875 46.4765625 C-218.75045319 45.54611115 -219.00871887 44.61565979 -219.27481079 43.65701294 C-219.50493866 42.81451996 -219.73506653 41.97202698 -219.97216797 41.10400391 C-220.17228485 40.37790924 -220.37240173 39.65181458 -220.57858276 38.90371704 C-221 37 -221 37 -221 34 C-222.31194336 34.02618408 -223.62388672 34.05236816 -224.97558594 34.0793457 C-229.84325098 34.16984847 -234.7108417 34.22724994 -239.57910156 34.2746582 C-241.68599961 34.29980212 -243.79281043 34.33392207 -245.89941406 34.37719727 C-248.9279532 34.43785368 -251.9553393 34.46621083 -254.984375 34.48828125 C-255.92617615 34.51408768 -256.86797729 34.5398941 -257.83831787 34.56648254 C-264.38867346 34.5692917 -264.38867346 34.5692917 -267.58129883 31.59619141 C-269.55043655 27.99271342 -270.21686273 25.09629593 -270 21 C-268.61772116 17.33696108 -267.10053003 14.42095582 -264 12 C-261.51325989 11.63923645 -261.51325989 11.63923645 -258.51879883 11.65942383 C-256.83739555 11.65976372 -256.83739555 11.65976372 -255.12202454 11.66011047 C-253.91257675 11.67559433 -252.70312897 11.69107819 -251.45703125 11.70703125 C-250.21829758 11.71127609 -248.9795639 11.71552094 -247.70329285 11.71989441 C-244.41350999 11.73385267 -241.12416797 11.76079787 -237.83453369 11.79400635 C-234.47633254 11.82472067 -231.11806682 11.83840261 -227.75976562 11.85351562 C-221.17300426 11.88662641 -214.5865382 11.93685743 -208 12 C-205.82010832 17.72480449 -203.93234408 23.40569696 -202.3125 29.3125 C-201.97508789 30.50842773 -201.97508789 30.50842773 -201.63085938 31.72851562 C-201.41880859 32.49486328 -201.20675781 33.26121094 -200.98828125 34.05078125 C-200.79790283 34.73825439 -200.60752441 35.42572754 -200.41137695 36.1340332 C-200 38 -200 38 -200 41 C-193.38792174 41.14546432 -186.77577474 41.28745126 -180.16357422 41.42724609 C-177.92364898 41.47498588 -175.68373932 41.52346372 -173.44384766 41.57275391 C-166.98817642 41.7145414 -160.53262958 41.83403963 -154.07623291 41.93728638 C-151.0881315 41.99820331 -148.10344988 42.09755372 -145.11669922 42.20483398 C-143.32000344 42.25048952 -141.52329184 42.29552858 -139.7265625 42.33984375 C-138.91701111 42.37932129 -138.10745972 42.41879883 -137.27337646 42.45947266 C-133.00981282 42.53484301 -131.45582034 42.33888797 -127.90698242 39.70043945 C-125.55692926 37.05445924 -125.55692926 37.05445924 -123.38671875 34.015625 C-119.04408625 28.52869818 -113.04042877 25.34328557 -107 22 C-106.37270996 21.64808594 -105.74541992 21.29617188 -105.09912109 20.93359375 C-81.85688114 8.19296765 -54.87323359 6.06313505 -29 3 C-28.28654419 2.91536499 -27.57308838 2.83072998 -26.8380127 2.74353027 C-3.61574785 0 -3.61574785 0 0 0 Z M-191 62 C-189.48713302 72.27990892 -186.5997945 82.17361891 -183.80859375 92.16015625 C-183.29781556 94.00042217 -182.78741019 95.84079161 -182.27735901 97.68125916 C-181.21369785 101.51547824 -180.14683302 105.34878542 -179.07739258 109.18139648 C-177.7051083 114.09963549 -176.33899191 119.01956094 -174.97498989 123.94010258 C-173.92413033 127.7297075 -172.87105163 131.51869264 -171.81718636 135.30746269 C-171.31236102 137.12267789 -170.80799912 138.93802204 -170.30410576 140.75349617 C-169.60255657 143.27904885 -168.89826257 145.80381907 -168.19311523 148.32836914 C-167.98478561 149.08000839 -167.77645599 149.83164764 -167.56181335 150.60606384 C-166.51831832 154.3907429 -166.51831832 154.3907429 -165 158 C-111.21 158 -57.42 158 -2 158 C-0.02901616 152.08704848 1.77759258 146.32334447 3.26831055 140.29907227 C3.47357361 139.48167068 3.67883667 138.6642691 3.89031982 137.82209778 C4.55925317 135.15438778 5.22312497 132.48544902 5.88671875 129.81640625 C6.35301558 127.95069973 6.81955696 126.08505431 7.28633118 124.21946716 C8.25927364 120.32760796 9.22979738 116.43515636 10.19848633 112.54223633 C11.44200542 107.54535904 12.69078989 102.54981583 13.94125652 97.55467319 C14.90298331 93.71109959 15.86236943 89.86694489 16.82099342 86.02259636 C17.2808836 84.17918143 17.74141133 82.33592543 18.20258141 80.49283028 C18.84400271 77.92751433 19.48237253 75.36145869 20.11987305 72.79516602 C20.31152542 72.03103394 20.5031778 71.26690186 20.70063782 70.47961426 C21.66162989 66.78416263 21.66162989 66.78416263 22 63 C9.13 62.505 9.13 62.505 -4 62 C-4.556875 64.97 -5.11375 67.94 -5.6875 71 C-9.43721452 89.98534782 -15.11226387 108.11773328 -28 123 C-28.61101562 123.804375 -29.22203125 124.60875 -29.8515625 125.4375 C-40.32701046 137.93185248 -58.92056136 147.02566515 -75 149 C-91.61620576 150.40945947 -104.96527441 148.2064944 -118.828125 138.35546875 C-120.99747986 136.73527489 -120.99747986 136.73527489 -124 137 C-126.16744966 138.94983423 -128.17849724 140.8987109 -130.1875 143 C-130.74630859 143.57234375 -131.30511719 144.1446875 -131.88085938 144.734375 C-133.26073093 146.14962788 -134.63126734 147.57397155 -136 149 C-139.75263377 147.73420531 -141.84665788 146.47163895 -144.3125 143.375 C-145.08013672 142.42753906 -145.08013672 142.42753906 -145.86328125 141.4609375 C-146.23839844 140.97882813 -146.61351562 140.49671875 -147 140 C-145.46356148 136.31930113 -143.21849055 134.01224796 -140.375 131.25 C-139.55773437 130.45078125 -138.74046875 129.6515625 -137.8984375 128.828125 C-137.27195312 128.22484375 -136.64546875 127.6215625 -136 127 C-136.37511719 126.608125 -136.75023437 126.21625 -137.13671875 125.8125 C-141.02892794 121.26341923 -143.05591991 116.70568642 -144.8125 111.0625 C-145.0189917 110.40701172 -145.2254834 109.75152344 -145.43823242 109.07617188 C-147.80645551 101.01565954 -148.28515188 93.44065966 -147.25 85.125 C-147.15928223 84.34850098 -147.06856445 83.57200195 -146.97509766 82.77197266 C-146.20909926 76.67817051 -144.9292162 70.83909436 -143 65 C-146.36008133 61.63991867 -155.9384076 62.77315477 -160.43359375 62.68359375 C-161.31153091 62.66281265 -162.18946808 62.64203156 -163.0940094 62.62062073 C-165.87509985 62.55568055 -168.65627785 62.49650073 -171.4375 62.4375 C-173.33269104 62.39426186 -175.2278735 62.35064595 -177.12304688 62.30664062 C-181.74861013 62.20005678 -186.37426071 62.09863592 -191 62 Z " fill="#1D2B28" transform="translate(608,236)"/>
<path d="M0 0 C0.5015986 22.5193001 -0.54289699 46.95396593 -9 68 C-9.26828613 68.71333496 -9.53657227 69.42666992 -9.81298828 70.16162109 C-15.92918341 86.37264934 -25.88773091 99.9946189 -41 109 C-45.84398636 111.14403849 -50.91125649 112.56516022 -56 114 C-56.71671875 114.24621094 -57.4334375 114.49242187 -58.171875 114.74609375 C-67.40606892 117.70839047 -79.23335671 117.27307453 -87.9375 113.15625 C-90.7570946 111.57556818 -93.39649731 109.9183704 -96 108 C-94.54811406 104.64956603 -92.7180341 102.49513804 -90.11328125 99.953125 C-89.33919922 99.19 -88.56511719 98.426875 -87.76757812 97.640625 C-86.55231445 96.45726562 -86.55231445 96.45726562 -85.3125 95.25 C-78.71719191 88.81798464 -78.71719191 88.81798464 -72.51171875 82.015625 C-67.67720892 76.38131133 -62.31484177 71.2703735 -57.02734375 66.06640625 C-53.38255264 62.45671746 -49.80661508 58.85050549 -46.46875 54.953125 C-43.96180949 52.02884748 -41.33445604 49.31552708 -38.5625 46.640625 C-37.81355469 45.91746094 -37.06460938 45.19429688 -36.29296875 44.44921875 C-34.74022235 42.95995772 -33.18007333 41.47838324 -31.61328125 40.00390625 C-30.87464844 39.28589844 -30.13601563 38.56789063 -29.375 37.828125 C-28.70210937 37.1877832 -28.02921875 36.54744141 -27.3359375 35.88769531 C-25.76738621 34.09692749 -25.76738621 34.09692749 -26.16015625 31.89355469 C-27.27617014 29.37733267 -29.03753754 27.89915722 -31 26 C-31 25.34 -31 24.68 -31 24 C-35.80538627 26.50902335 -39.22426756 29.95464177 -42.9934082 33.76635742 C-43.67688828 34.44954544 -44.36036835 35.13273346 -45.06455994 35.83662415 C-47.31474219 38.08819589 -49.55776384 40.3467612 -51.80078125 42.60546875 C-53.36261541 44.17103438 -54.92489273 45.73615804 -56.4875946 47.30085754 C-60.5937225 51.41461127 -64.69380801 55.53433641 -68.79266357 59.65533447 C-72.97858521 63.86173706 -77.17019425 68.06246373 -81.36132812 72.26367188 C-89.57979466 80.50356981 -97.79188889 88.74978744 -106 97 C-112.03097857 91.08727591 -114.76765495 86.93327973 -115.16796875 78.43359375 C-115.24119912 63.45065934 -113.27027195 52.6953252 -105 40 C-104.48695313 39.175 -103.97390625 38.35 -103.4453125 37.5 C-98.61999937 30.49954572 -91.70754442 25.96874223 -84.77929688 21.23974609 C-83.2804006 20.19537243 -81.82905677 19.08322858 -80.390625 17.95703125 C-61.64031916 4.0781284 -22.97597574 -0.3339752 0 0 Z " fill="#44AA57" transform="translate(591,254)"/>
<path d="M0 0 C8.25 0 16.5 0 25 0 C25.33 22.77 25.66 45.54 26 69 C29.3 65.37 32.6 61.74 36 58 C48.73631899 50.7577794 60.96488608 48.9440753 75.48046875 51.6484375 C84.3596717 54.57895018 90.03491492 59.65498343 94.375 67.875 C98.11092331 75.53468635 99.3086852 83.19702351 99.22705078 91.64086914 C99.22734283 92.45172974 99.22763489 93.26259033 99.22793579 94.09802246 C99.22655679 96.74384755 99.21106392 99.38938115 99.1953125 102.03515625 C99.19157727 103.88317206 99.18873271 105.73118987 99.18673706 107.57920837 C99.17914073 112.41740491 99.15952703 117.25547929 99.1373291 122.09362793 C99.11678405 127.04091744 99.10771691 131.9882269 99.09765625 136.93554688 C99.07627699 146.62375992 99.04112789 156.31185064 99 166 C90.75 166 82.5 166 74 166 C73.970271 163.20184814 73.970271 163.20184814 73.93994141 160.34716797 C73.87169863 154.12856422 73.79489269 147.91011039 73.71247292 141.691679 C73.66289016 137.92778964 73.61656282 134.16392333 73.578125 130.39990234 C73.54078425 126.75577844 73.49430535 123.11186763 73.44193649 119.46792984 C73.42364765 118.08957854 73.40844975 116.71118203 73.39665604 115.33275986 C73.3726826 95.7425145 73.3726826 95.7425145 66 78 C60.59985924 72.72843402 55.57284506 72.58739655 48.296875 72.66015625 C41.91483741 73.31802031 38.058139 76.67624775 33.75 81.1875 C25.30937911 91.76702482 25.84328175 104.71918071 25.68359375 117.5625 C25.66298596 118.96354736 25.64198859 120.36458903 25.62062073 121.765625 C25.56579448 125.42827716 25.51621366 129.0909817 25.46777344 132.75372314 C25.41726773 136.50122664 25.36173442 140.24865539 25.30664062 143.99609375 C25.1995426 151.33066725 25.09845866 158.6653045 25 166 C16.75 166 8.5 166 0 166 C0 111.22 0 56.44 0 0 Z " fill="#1D2B28" transform="translate(307,512)"/>
<path d="M0 0 C2.0219438 1.94784115 3.96589251 3.85347448 5.73828125 6.03125 C5.73828125 6.69125 5.73828125 7.35125 5.73828125 8.03125 C17.10868639 8.06273838 28.478394 8.05666191 39.8487339 8.00278378 C45.12868421 7.97894186 50.40800333 7.96798293 55.68798828 7.98657227 C60.78474971 8.00404078 65.88037776 7.98752954 70.97700119 7.94757271 C72.92020081 7.93828699 74.86349862 7.94119299 76.8066597 7.95655632 C79.53203719 7.97600997 82.2538435 7.95190291 84.97900391 7.91772461 C85.78029724 7.9335408 86.58159058 7.94935699 87.40716553 7.96565247 C90.80933515 7.88369067 92.9069872 7.75064447 95.53791428 5.4738636 C97.03882585 3.71615403 98.37996398 1.89914064 99.73828125 0.03125 C107.35546104 -6.08769774 116.61738281 -8.64641858 126.32421875 -7.72265625 C136.2377244 -5.99923142 143.42174803 -1.8779134 149.73828125 6.03125 C155.48782185 15.50945307 156.69841457 24.05983894 155.73828125 35.03125 C152.95403875 45.20933152 148.08847824 52.08796633 139.1953125 57.70703125 C130.67269682 62.30030107 122.06411273 63.32405816 112.73828125 60.90625 C103.69198172 57.90018152 95.89914982 52.22128429 91.51953125 43.64453125 C89.17637702 38.17996084 88.51001801 34.20514407 87.73828125 28.03125 C62.65828125 28.03125 37.57828125 28.03125 11.73828125 28.03125 C11.73828125 30.34125 11.73828125 32.65125 11.73828125 35.03125 C8.7295501 45.18411724 4.14778683 52.05049274 -4.8046875 57.70703125 C-13.32730318 62.30030107 -21.93588727 63.32405816 -31.26171875 60.90625 C-39.38806156 58.20588142 -46.59008699 53.29506767 -51.26171875 46.03125 C-56.78199576 34.74299125 -57.53124133 25.14923081 -53.58203125 13.21875 C-49.65049967 3.7272418 -42.49560891 -2.35051613 -33.13671875 -6.28125 C-31.71359375 -6.6215625 -31.71359375 -6.6215625 -30.26171875 -6.96875 C-29.25109375 -7.21625 -28.24046875 -7.46375 -27.19921875 -7.71875 C-17.30943701 -8.34667265 -7.57797766 -6.59637434 0 0 Z M-33.51171875 18.28125 C-35.69717643 21.71554064 -36.19155132 23.96153902 -36.26171875 28.03125 C-34.67152354 33.24355653 -32.78996447 36.01241952 -28.26171875 39.03125 C-25.15218496 40.5860169 -22.69905114 40.31769437 -19.26171875 40.03125 C-15.44170397 37.97431897 -12.30771103 35.90786696 -10.26171875 32.03125 C-9.23100972 27.46668143 -8.84329998 25.17639612 -10.44921875 20.78125 C-12.97219911 16.95327981 -14.85735072 14.49937268 -19.26171875 13.03125 C-25.78833814 12.54779671 -28.92432705 13.6938583 -33.51171875 18.28125 Z M110.48828125 18.28125 C108.30282357 21.71554064 107.80844868 23.96153902 107.73828125 28.03125 C109.32847646 33.24355653 111.21003553 36.01241952 115.73828125 39.03125 C118.84781504 40.5860169 121.30094886 40.31769437 124.73828125 40.03125 C128.55829603 37.97431897 131.69228897 35.90786696 133.73828125 32.03125 C134.76899028 27.46668143 135.15670002 25.17639612 133.55078125 20.78125 C131.02780089 16.95327981 129.14264928 14.49937268 124.73828125 13.03125 C118.21166186 12.54779671 115.07567295 13.6938583 110.48828125 18.28125 Z " fill="#1D2B28" transform="translate(473.26171875,433.96875)"/>
<path d="M0 0 C9.57 0 19.14 0 29 0 C35.80733496 20.30791547 42.54119312 40.63876968 49.1875 61 C49.52073273 62.01934631 49.85396545 63.03869263 50.19729614 64.08892822 C51.14739782 66.99628452 52.09552902 69.9042753 53.04296875 72.8125 C53.32786163 73.68389618 53.61275452 74.55529236 53.90628052 75.45309448 C54.16819183 76.25876862 54.43010315 77.06444275 54.69995117 77.89453125 C54.92800949 78.59425049 55.15606781 79.29396973 55.39103699 80.01489258 C55.99890503 81.99643059 56.51601114 83.98496406 57 86 C57.27482208 85.18584122 57.54964417 84.37168243 57.83279419 83.53285217 C60.44923686 75.78234505 63.06681681 68.03222311 65.68560982 60.2825098 C67.03124745 56.30027939 68.37647631 52.31791196 69.72070312 48.33520508 C71.0229645 44.47688778 72.32638814 40.61896477 73.63055038 36.7612896 C74.12280839 35.30457398 74.61467824 33.84772713 75.10611343 32.39073372 C77.79388398 24.42303239 80.5135673 16.46683519 83.28857422 8.52905273 C83.54466524 7.79043283 83.80075626 7.05181292 84.06460762 6.29081059 C85.88381752 1.11618248 85.88381752 1.11618248 87 0 C88.92667507 -0.08748207 90.85651861 -0.10697334 92.78515625 -0.09765625 C93.95498047 -0.09443359 95.12480469 -0.09121094 96.33007812 -0.08789062 C97.56177734 -0.07951172 98.79347656 -0.07113281 100.0625 -0.0625 C101.91584961 -0.05573242 101.91584961 -0.05573242 103.80664062 -0.04882812 C106.87114117 -0.03699608 109.93554721 -0.02051173 113 0 C112.27919381 4.55085262 110.71476138 8.70800425 109.0703125 12.98828125 C108.76845032 13.78246964 108.46658813 14.57665802 108.15557861 15.39491272 C107.14984308 18.03583376 106.13772462 20.67425186 105.125 23.3125 C104.77463684 24.22904358 104.42427368 25.14558716 104.06329346 26.08990479 C97.49773905 43.26456726 90.75748627 60.36902993 83.95654297 77.45166016 C80.23216057 86.81026738 76.52872662 96.17439712 72.9296875 105.58203125 C72.61280975 106.4078772 72.29593201 107.23372314 71.9694519 108.08459473 C70.51129088 111.88571422 69.06083538 115.6893517 67.62646484 119.49951172 C61.47421529 135.6707374 53.92155525 152.47744633 38 161 C37.32324219 161.41121094 36.64648438 161.82242188 35.94921875 162.24609375 C27.42613101 166.62117787 16.34660029 165.82880201 7 165 C6.34 164.67 5.68 164.34 5 164 C5 156.74 5 149.48 5 142 C7.31 142.33 9.62 142.66 12 143 C18.63960435 143.66724195 23.46162991 142.81899549 29 139 C33.95137885 134.31664903 36.89786611 128.888377 39.5625 122.6875 C39.94212891 121.89666016 40.32175781 121.10582031 40.71289062 120.29101562 C44.43074242 111.7043823 40.93497523 105.3008302 37.71020508 96.99169922 C36.81774746 94.76091645 35.92060674 92.53200322 35.01953125 90.3046875 C34.27521601 88.44952746 33.53090078 86.59436742 32.78658581 84.73920727 C32.00178856 82.78558317 31.21484579 80.83283643 30.42724609 78.88034058 C28.80081188 74.84803249 27.18118582 70.81301141 25.5625 66.77758789 C21.07230287 55.58750501 16.56809766 44.40309333 12.05363464 33.22277832 C10.54452811 29.48344284 9.03885513 25.74273084 7.53378296 22.00177002 C6.51731016 19.48043736 5.4947898 16.96161551 4.47192383 14.44287109 C3.86641388 12.93989357 3.26117089 11.43680846 2.65625 9.93359375 C2.38246017 9.26461563 2.10867035 8.59563751 1.82658386 7.90638733 C0.70113181 5.09374524 0 3.06328476 0 0 Z " fill="#1D2B28" transform="translate(746,566)"/>
<path d="M0 0 C38.28 0 76.56 0 116 0 C116 7.59 116 15.18 116 23 C101.15 23 86.3 23 71 23 C71 67.22 71 111.44 71 157 C62.42 157 53.84 157 45 157 C45 112.78 45 68.56 45 23 C30.15 23 15.3 23 0 23 C0 15.41 0 7.82 0 0 Z " fill="#1D2B28" transform="translate(166,521)"/>
<path d="M0 0 C0 7.26 0 14.52 0 22 C-1.65 21.67 -3.3 21.34 -5 21 C-12.62901163 20.41092442 -18.91752482 19.97534659 -25 25 C-29.23791915 31.4981427 -29.1963806 38.85689202 -29.5625 46.375 C-29.706875 49.22125 -29.85125 52.0675 -30 55 C-21.42 55 -12.84 55 -4 55 C-4 61.6 -4 68.2 -4 75 C-12.58 75 -21.16 75 -30 75 C-30 105.36 -30 135.72 -30 167 C-38.25 167 -46.5 167 -55 167 C-55 136.64 -55 106.28 -55 75 C-61.27 75 -67.54 75 -74 75 C-74 68.4 -74 61.8 -74 55 C-67.73 55 -61.46 55 -55 55 C-55.04640625 53.09476563 -55.0928125 51.18953125 -55.140625 49.2265625 C-55.17816335 46.6927241 -55.21456128 44.15886863 -55.25 41.625 C-55.28351562 40.37332031 -55.31703125 39.12164063 -55.3515625 37.83203125 C-55.46984002 26.53652857 -52.99516444 17.28070602 -45 9 C-42.17329067 6.614964 -39.25018531 4.75770022 -36 3 C-35.24589844 2.58492187 -34.49179687 2.16984375 -33.71484375 1.7421875 C-23.95769046 -2.68023063 -10.31403225 -2.57850806 0 0 Z " fill="#1D2B28" transform="translate(656,511)"/>
<path d="M0 0 C0 10.89 0 21.78 0 33 C8.91 33 17.82 33 27 33 C27 39.6 27 46.2 27 53 C18.09 53 9.18 53 0 53 C0.08883993 60.38306549 0.17952566 67.76573089 0.28729248 75.14848328 C0.3369824 78.58739374 0.38346877 82.02627547 0.421875 85.46533203 C0.46621958 89.42236811 0.52575273 93.37910949 0.5859375 97.3359375 C0.59748871 98.55300385 0.60903992 99.77007019 0.62094116 101.02401733 C0.48582678 112.95744325 0.48582678 112.95744325 5 123.5625 C8.42228484 126.02226723 10.55401864 126.16140559 14.75 126.1875 C15.77609375 126.20167969 16.8021875 126.21585938 17.859375 126.23046875 C21.55335411 126.08882543 21.55335411 126.08882543 27 124 C27 130.93 27 137.86 27 145 C17.97810519 148.38321055 17.97810519 148.38321055 13.79296875 148.43359375 C12.88168213 148.44511475 11.97039551 148.45663574 11.03149414 148.46850586 C10.09297607 148.45827393 9.15445801 148.44804199 8.1875 148.4375 C7.21353271 148.42920166 6.23956543 148.42090332 5.23608398 148.41235352 C-3.7493823 148.20093963 -11.0261488 146.96562824 -17.9375 140.875 C-25.78613312 131.64037344 -25.54506618 121.32396411 -25.390625 109.8359375 C-25.38315064 108.19113864 -25.37746336 106.54633078 -25.37347412 104.90151978 C-25.35831165 100.60401163 -25.31911294 96.30705725 -25.2746582 92.00976562 C-25.23350098 87.61205533 -25.21541975 83.21425424 -25.1953125 78.81640625 C-25.15260763 70.21065693 -25.08233679 61.60546147 -25 53 C-31.27 53 -37.54 53 -44 53 C-44 46.4 -44 39.8 -44 33 C-37.73 33 -31.46 33 -25 33 C-25 24.09 -25 15.18 -25 6 C-21.6175 5.01 -18.235 4.02 -14.75 3 C-13.69006836 2.68675781 -12.63013672 2.37351562 -11.53808594 2.05078125 C-10.69536133 1.80714844 -9.85263672 1.56351563 -8.984375 1.3125 C-8.12553711 1.06113281 -7.26669922 0.80976562 -6.38183594 0.55078125 C-4 0 -4 0 0 0 Z " fill="#1D2B28" transform="translate(707,533)"/>
<path d="M0 0 C0.73283203 -0.00386719 1.46566406 -0.00773438 2.22070312 -0.01171875 C7.68413018 -0.00168491 7.68413018 -0.00168491 9.9375 1.125 C9.9375 9.705 9.9375 18.285 9.9375 27.125 C5.9775 26.135 2.0175 25.145 -2.0625 24.125 C-10.14123344 24.97044885 -14.93776572 26.92586728 -20.6875 32.8125 C-29.32441583 43.97661628 -29.34407551 58.33257122 -29.4765625 71.86328125 C-29.49592865 73.11006149 -29.5152948 74.35684174 -29.5352478 75.6414032 C-29.59441316 79.57336868 -29.64117429 83.50536446 -29.6875 87.4375 C-29.72472312 90.12437661 -29.76459214 92.81121175 -29.8046875 95.49804688 C-29.90157987 102.04030037 -29.98164898 108.58245055 -30.0625 115.125 C-38.3125 115.125 -46.5625 115.125 -55.0625 115.125 C-55.0625 78.165 -55.0625 41.205 -55.0625 3.125 C-46.8125 3.125 -38.5625 3.125 -30.0625 3.125 C-29.7325 9.065 -29.4025 15.005 -29.0625 21.125 C-28.340625 19.76375 -27.61875 18.4025 -26.875 17 C-20.52169424 5.67762828 -13.06296489 -0.06929955 0 0 Z " fill="#1D2B28" transform="translate(498.0625,562.875)"/>
<path d="M0 0 C8.25 0 16.5 0 25 0 C25 36.96 25 73.92 25 112 C16.75 112 8.5 112 0 112 C0 75.04 0 38.08 0 0 Z " fill="#1D2B28" transform="translate(530,566)"/>
<path d="M0 0 C3.89173985 2.03262846 6.35329109 4.1635566 7.83984375 8.2734375 C8.4941102 13.62206569 8.51519632 17.87270625 6.15234375 22.7734375 C2.97226627 26.2113591 0.41817172 28.05417041 -4.28125 28.70703125 C-15.59305187 28.72035493 -15.59305187 28.72035493 -20.16015625 24.2734375 C-23.7602632 20.31331985 -23.6664482 16.05821656 -23.5078125 10.93359375 C-23.0092195 7.118517 -21.79746818 5.04955532 -19.16015625 2.2734375 C-13.70484393 -1.71825444 -6.35687805 -2.13811812 0 0 Z " fill="#45AB58" transform="translate(550.16015625,513.7265625)"/>
</svg>
