<svg version="1.1" id="Layer_1" xmlns="http://www.w3.org/2000/svg" xmlns:xlink="http://www.w3.org/1999/xlink" x="0px" y="0px"
	 width="100%" viewBox="0 0 688 256" enable-background="new 0 0 688 256" xml:space="preserve">
<path fill="#000000" opacity="1.000000" stroke="none" 
	d="
M324.531372,1.000000 
	C325.116272,3.153292 325.332581,5.306527 325.333832,7.459887 
	C325.354767,43.411148 325.446075,79.362991 325.237396,115.313049 
	C325.208191,120.339264 326.522827,122.483223 331.644257,121.700806 
	C332.940857,121.502716 334.302979,121.682533 335.631378,121.754768 
	C337.944946,121.880562 339.477142,123.097748 339.620392,125.412140 
	C339.797180,128.268280 337.385376,127.924644 335.714111,127.932777 
	C320.069275,128.008896 304.423950,128.003708 288.778839,127.977936 
	C286.557220,127.974274 284.258209,127.816101 284.238983,124.690048 
	C284.221405,121.826897 286.234467,121.834694 288.347076,121.622192 
	C296.975311,120.754265 299.638092,117.783539 299.642853,109.095375 
	C299.660736,76.472939 299.572540,43.850082 299.739349,11.228488 
	C299.762299,6.742196 298.636444,4.646492 293.901306,5.250354 
	C291.936676,5.500894 289.908966,5.208657 287.915741,5.295441 
	C285.425812,5.403850 284.194946,4.260281 284.040833,1.408418 
	C297.354218,1.000000 310.708466,1.000000 324.531372,1.000000 
z"/>
<path fill="#000000" opacity="1.000000" stroke="none" 
	d="
M689.000000,114.550018 
	C682.600342,129.894409 669.499084,131.561813 656.473267,129.122772 
	C645.182983,127.008690 637.499817,117.181900 636.639221,104.683487 
	C635.528015,88.545593 636.274963,72.395096 636.068848,56.251945 
	C635.981201,49.388752 636.054321,49.392239 629.145691,49.318253 
	C627.814575,49.304001 626.481995,49.272297 625.153625,49.190742 
	C623.538940,49.091610 622.845703,48.121799 622.765930,46.571651 
	C622.678833,44.878273 623.175598,43.618977 625.027649,43.286499 
	C625.518005,43.198460 626.017578,43.160477 626.513672,43.105843 
	C636.015442,42.059479 636.015503,42.059669 636.070679,32.139568 
	C636.111633,24.773964 636.114807,24.793859 643.650391,23.562637 
	C648.237183,22.813211 652.850708,22.162893 657.380005,21.146217 
	C660.897278,20.356709 662.400208,21.358536 662.296753,25.018326 
	C662.179199,29.178034 662.488342,33.356907 662.228882,37.503471 
	C661.974854,41.562382 663.390564,43.260807 667.591614,43.069057 
	C672.908813,42.826359 678.247437,42.981937 683.575012,43.071320 
	C685.755432,43.107903 688.168640,43.167782 688.072327,46.360222 
	C687.974487,49.602345 685.515320,49.308643 683.359680,49.321354 
	C678.030945,49.352779 672.698242,49.459194 667.374207,49.299736 
	C663.893738,49.195492 662.194763,50.222439 662.223755,54.078350 
	C662.366577,73.061562 662.197632,92.047447 662.394043,111.029747 
	C662.478638,119.205223 666.132324,123.202354 672.124390,122.727753 
	C676.128113,122.410629 678.322571,119.710716 680.041443,116.601768 
	C681.402100,114.140633 682.627319,111.530609 683.400574,108.839539 
	C684.175232,106.143669 685.682983,105.392319 688.592773,105.917328 
	C689.000000,108.700012 689.000000,111.400032 689.000000,114.550018 
z"/>
<path fill="#000000" opacity="1.000000" stroke="none" 
	d="
M59.766106,15.281755 
	C55.997425,15.304359 52.693550,15.304359 47.959557,15.304359 
	C58.844696,42.268925 69.363922,68.327042 79.883141,94.385155 
	C80.307236,94.454735 80.731339,94.524315 81.155434,94.593895 
	C90.505981,68.477127 99.856537,42.360359 109.540642,15.311958 
	C105.008598,15.311958 101.410759,15.309256 97.812927,15.313021 
	C95.812721,15.315115 94.104988,14.927307 93.999512,12.436601 
	C93.891937,9.896177 95.231857,8.811932 97.663094,8.815189 
	C106.656708,8.827241 115.650330,8.827870 124.643951,8.837934 
	C126.694099,8.840228 128.193054,9.391002 128.279236,11.884483 
	C128.373474,14.610497 126.844254,15.621456 124.550331,15.249370 
	C119.118866,14.368356 117.630219,17.560745 116.065048,21.958321 
	C104.071747,55.655212 91.847946,89.270264 79.607323,122.878525 
	C78.713730,125.332001 78.694984,128.969528 74.741882,128.897293 
	C70.401619,128.817978 65.862587,128.732513 63.430367,124.154144 
	C61.715576,120.926254 60.102936,117.621155 58.744869,114.230301 
	C46.369976,83.332306 33.989563,52.435989 21.817156,21.458080 
	C20.171286,17.269459 18.474699,14.400518 13.366705,15.250062 
	C11.068331,15.632318 8.931707,15.038261 9.031628,11.927745 
	C9.120617,9.157507 11.029537,8.827844 13.193787,8.827946 
	C28.516701,8.828665 43.839619,8.820214 59.162525,8.829870 
	C61.090553,8.831085 62.922634,9.090344 63.156250,11.569334 
	C63.357769,13.707694 62.635643,15.163040 59.766106,15.281755 
z"/>
<path fill="#000000" opacity="1.000000" stroke="none" 
	d="
M559.046997,128.410767 
	C538.572449,132.291611 518.650146,126.951653 508.675720,110.793259 
	C497.355194,92.454185 499.494385,60.484921 519.731201,46.878235 
	C534.749695,36.780209 561.507080,36.980900 576.014343,47.855141 
	C582.828003,52.962433 585.757629,60.065098 585.976624,68.190987 
	C586.135925,74.100784 583.322327,78.700600 577.583801,81.200417 
	C570.562866,84.258842 563.093384,84.839485 555.626465,85.177086 
	C548.807556,85.485367 541.966675,85.272095 535.175842,84.374382 
	C531.543518,83.894218 530.041809,85.273750 530.214844,89.090675 
	C530.563660,96.784279 531.275208,104.394638 534.609436,111.440140 
	C539.260559,121.268402 547.691467,125.062187 558.179260,122.097054 
	C565.832825,119.933212 572.145203,115.791931 576.022644,108.617104 
	C577.390686,106.085571 578.971741,104.343742 581.836121,106.182053 
	C584.673462,108.003052 582.473816,110.046890 581.537781,111.768341 
	C576.718140,120.632347 569.188965,125.968704 559.046997,128.410767 
M540.248474,47.601624 
	C532.451172,53.608173 531.661072,62.609364 530.445496,71.275536 
	C529.594055,77.345924 530.111450,77.537285 536.445007,77.802277 
	C539.096985,77.913223 541.752380,78.518372 544.385254,78.406128 
	C554.372925,77.980354 557.140076,76.893623 558.417786,69.879601 
	C559.399048,64.492821 558.653809,59.009499 556.767822,53.703388 
	C554.448853,47.179367 547.451599,43.011436 540.248474,47.601624 
z"/>
<path fill="#000000" opacity="1.000000" stroke="none" 
	d="
M244.066528,55.215279 
	C245.887695,58.489605 246.952240,61.647881 247.264862,64.983490 
	C248.348755,76.548660 242.342346,82.591606 228.235001,84.239685 
	C218.448959,85.382942 208.668777,85.666862 198.844345,84.514725 
	C191.473419,83.650314 190.918793,84.550911 191.875168,92.069923 
	C192.546921,97.351128 192.991211,102.648567 194.655807,107.742554 
	C199.080429,121.282829 209.748306,126.257599 223.058640,120.969276 
	C229.303177,118.488258 234.416458,114.528458 237.580444,108.565674 
	C239.481659,104.982697 241.478668,104.380081 245.055847,107.427673 
	C242.803528,113.675629 239.094666,119.211571 233.379166,122.747681 
	C217.758484,132.412018 201.387955,132.070938 185.279297,124.269325 
	C170.191086,116.961922 164.357956,103.654236 163.657578,87.577225 
	C163.328430,80.022011 164.013306,72.648483 166.757507,65.499046 
	C172.659973,50.121334 187.321472,39.947903 203.796829,39.626488 
	C213.381180,39.439510 222.766891,39.931141 231.566879,44.251732 
	C236.604080,46.724869 240.890320,50.046516 244.066528,55.215279 
M205.424667,45.975445 
	C200.403915,47.209232 197.701416,50.883083 195.742523,55.278526 
	C192.996857,61.439316 192.490875,68.100929 191.542084,74.658379 
	C191.225113,76.849129 192.404999,77.594131 194.421478,77.703941 
	C198.397659,77.920471 202.363586,78.347473 206.341003,78.514633 
	C216.605103,78.946007 220.350983,75.212044 220.009323,64.937134 
	C219.888016,61.289448 219.715363,57.631805 218.556458,54.117023 
	C216.620575,48.245857 212.352020,45.364815 205.424667,45.975445 
z"/>
<path fill="#000000" opacity="1.000000" stroke="none" 
	d="
M429.742126,120.631531 
	C427.863220,124.258217 428.260101,129.201508 422.398163,129.055359 
	C416.450317,128.907059 411.313263,128.217926 408.613770,121.678177 
	C401.121490,103.527206 394.807190,84.937790 387.742523,66.629929 
	C385.946777,61.976315 384.136963,57.322063 382.557617,52.593292 
	C381.606598,49.745796 380.280945,47.913757 376.922333,48.267277 
	C375.003357,48.469257 373.098999,48.128269 373.094482,45.535458 
	C373.089355,42.600361 375.266144,42.646801 377.315002,42.637753 
	C389.800293,42.582600 402.285675,42.511765 414.770966,42.520252 
	C416.839966,42.521660 419.410187,42.148666 419.235748,45.594891 
	C419.082489,48.623329 416.809387,48.247284 414.863068,48.294296 
	C412.398865,48.353825 409.932098,48.308681 406.397308,48.308681 
	C413.312500,67.291496 419.929840,85.456764 426.547180,103.622032 
	C426.967285,103.676048 427.387421,103.730064 427.807526,103.784073 
	C434.902588,85.648430 441.997620,67.512779 449.518555,48.288574 
	C444.988281,48.288574 441.267365,48.303493 437.546661,48.282536 
	C435.565979,48.271381 433.830048,47.898861 433.835907,45.342346 
	C433.842133,42.638672 435.801819,42.639923 437.664337,42.632977 
	C445.988098,42.601921 454.312073,42.589767 462.635773,42.621632 
	C464.302032,42.628006 466.082001,42.629642 466.208374,45.062553 
	C466.335358,47.507179 464.965302,48.401222 462.823120,48.278366 
	C457.696106,47.984306 455.968018,51.581852 454.502228,55.436886 
	C446.286102,77.045425 438.100067,98.665413 429.742126,120.631531 
z"/>
<path fill="#000000" opacity="1.000000" stroke="none" 
	d="
M129.545746,202.713898 
	C138.285812,190.732315 150.052994,187.220413 163.638290,190.047928 
	C175.947739,192.609909 183.956284,200.358902 186.645981,212.873825 
	C190.642090,231.467316 178.265976,251.296402 154.260681,249.677612 
	C129.345978,247.997482 117.426353,224.963821 129.545746,202.713898 
M137.541275,204.077591 
	C131.325165,211.818024 130.313965,220.464600 134.150162,229.346329 
	C139.288284,241.242325 152.840408,246.326157 165.270142,241.562973 
	C176.777771,237.153122 182.718307,224.287537 178.946945,211.965897 
	C173.496094,194.157059 149.525131,190.517380 137.541275,204.077591 
z"/>
<path fill="#000000" opacity="1.000000" stroke="none" 
	d="
M243.517975,241.620132 
	C250.800613,225.688034 257.916992,210.099228 265.071106,194.527740 
	C266.240112,191.983368 267.197357,189.456009 271.014526,189.584991 
	C274.620300,189.706848 275.339539,192.240112 276.410370,194.570679 
	C283.840912,210.742416 291.219055,226.938309 298.569824,243.146500 
	C299.308228,244.774643 300.445099,246.321487 300.191956,248.607697 
	C296.294281,250.123245 293.574951,249.524857 291.686279,245.159882 
	C285.509766,230.885223 288.940277,233.729538 273.790466,233.407272 
	C269.131439,233.308151 264.453400,233.630936 259.811798,233.331360 
	C256.014252,233.086227 253.908905,234.581207 252.694626,238.046158 
	C251.872299,240.392700 250.495148,242.546906 249.696930,244.899384 
	C248.173782,249.388474 245.298569,250.197372 241.201843,248.596786 
	C240.794601,245.900574 242.614304,244.109497 243.517975,241.620132 
M272.067566,200.969482 
	C270.416656,197.756821 269.833496,200.046692 269.153717,201.552719 
	C265.873596,208.819992 262.599823,216.090195 259.353638,223.372681 
	C258.832916,224.540909 257.923828,225.722961 259.068024,227.199249 
	C266.962189,227.199249 274.942078,227.199249 283.662476,227.199249 
	C279.700592,218.187607 276.040466,209.862381 272.067566,200.969482 
z"/>
<path fill="#000000" opacity="1.000000" stroke="none" 
	d="
M386.431122,241.589386 
	C390.304321,239.428467 392.185364,236.482895 391.621918,232.367447 
	C391.072235,228.352493 388.019653,226.619110 384.650269,225.308502 
	C378.130402,222.772461 371.016083,222.175705 364.630219,219.202576 
	C356.279022,215.314453 353.301392,206.300888 357.734894,198.290619 
	C359.954803,194.279694 363.464264,191.836746 367.757965,190.547470 
	C376.419403,187.946655 384.845734,188.899200 393.040436,192.513321 
	C395.165802,193.450684 396.867523,194.548492 395.719757,197.417313 
	C394.453125,200.583206 392.589905,199.419815 390.509735,198.499237 
	C384.117188,195.670319 377.541626,194.183350 370.636475,196.513687 
	C366.606537,197.873703 363.560577,200.108124 363.247650,204.885574 
	C362.926392,209.789978 365.808716,212.225266 369.831635,213.719452 
	C372.785645,214.816589 375.855682,215.604019 378.881622,216.503891 
	C381.750153,217.356949 384.690796,218.008240 387.490875,219.042892 
	C395.743530,222.092361 399.591827,227.055756 399.230835,233.881912 
	C398.853455,241.017319 394.410736,246.447739 386.317719,248.552811 
	C376.630219,251.072601 367.168640,250.116257 358.341919,245.066681 
	C354.770905,243.023819 353.456207,240.532974 357.643311,237.005600 
	C366.311432,242.516846 375.603333,246.065445 386.431122,241.589386 
z"/>
<path fill="#000000" opacity="1.000000" stroke="none" 
	d="
M534.187256,211.397369 
	C530.142029,196.977158 540.805603,188.681198 556.264404,189.116791 
	C560.879761,189.246841 565.460266,190.325195 569.809509,192.216415 
	C573.719727,193.916748 574.481323,196.111481 571.403381,199.688416 
	C567.229309,198.637253 563.349182,196.245926 558.883911,195.639755 
	C554.455688,195.038574 550.250732,195.473221 546.199341,197.243118 
	C542.752075,198.749084 540.512756,201.236130 540.377014,205.219345 
	C540.237366,209.316162 542.663269,211.653564 545.990479,213.297897 
	C550.510864,215.531845 555.578552,215.999115 560.295288,217.606781 
	C562.964600,218.516586 565.750000,219.221649 568.241821,220.492264 
	C578.737183,225.844101 579.284119,239.698105 569.346497,246.120789 
	C560.647217,251.743149 542.321350,250.609238 534.200317,244.109787 
	C530.840576,241.420883 532.497681,239.396484 534.808777,236.782120 
	C539.417847,239.893112 544.220886,242.413498 549.751038,243.297699 
	C554.504700,244.057785 559.054443,243.601746 563.421326,241.711670 
	C566.707458,240.289383 568.697571,237.810730 568.913269,234.045502 
	C569.137329,230.135391 566.981079,227.780090 563.844543,226.169403 
	C559.361206,223.867050 554.338318,223.222092 549.563110,221.810211 
	C543.481506,220.012070 537.200623,218.466736 534.187256,211.397369 
z"/>
<path fill="#000000" opacity="1.000000" stroke="none" 
	d="
M469.247986,222.000031 
	C469.245697,229.815506 469.214996,237.131134 469.254211,244.446365 
	C469.268829,247.173065 469.066833,249.391068 465.368103,249.328186 
	C461.973114,249.270493 461.724396,247.239944 461.726685,244.702667 
	C461.741699,227.910385 461.742401,211.118057 461.718933,194.325790 
	C461.715393,191.797440 461.890625,189.728287 465.312164,189.679016 
	C468.973572,189.626297 469.258087,191.835236 469.251038,194.565872 
	C469.227905,203.543854 469.245483,212.521973 469.247986,222.000031 
z"/>
</svg>